<?xml version="1.0" standalone="no"?>
<!DOCTYPE svg PUBLIC "-//W3C//DTD SVG 20010904//EN"
 "http://www.w3.org/TR/2001/REC-SVG-20010904/DTD/svg10.dtd">
<svg version="1.0" xmlns="http://www.w3.org/2000/svg"
 width="700.000000pt" height="700.000000pt" viewBox="0 0 700.000000 700.000000"
 preserveAspectRatio="xMidYMid meet">
<metadata>
Created by potrace 1.14, written by Peter Selinger 2001-2017
</metadata>
<g transform="translate(0.000000,700.000000) scale(0.100000,-0.100000)"
fill="#000000" stroke="none">
<path d="M1685 5895 c-52 -13 -129 -88 -144 -141 -14 -49 -15 -4659 -2 -4718
13 -53 58 -106 117 -136 l49 -25 1800 0 1800 1 42 22 c50 26 96 80 112 131 16
55 16 4667 0 4722 -16 51 -62 105 -112 132 l-42 22 -1790 0 c-1162 0 -1804 -3
-1830 -10z m3343 -1082 l-3 -657 -1525 0 -1525 0 -3 657 -2 657 1530 0 1530 0
-2 -657z m-2623 -1315 l1 -217 -218 0 -218 0 0 219 0 219 218 -2 217 -2 0
-217z m656 199 c1 -24 1 -321 0 -378 l-1 -37 -215 0 c-118 0 -216 3 -216 6 -3
17 -5 418 -2 424 2 3 100 6 218 6 213 0 215 0 216 -21z m657 -197 l0 -218
-218 -1 -217 0 -1 218 0 219 218 0 218 0 0 -218z m653 202 c1 -10 2 -108 3
-219 l1 -202 -217 0 -218 0 -1 27 c0 15 -1 113 -2 219 l-2 191 218 0 c195 0
217 -1 218 -16z m659 -202 l0 -219 -218 0 -218 1 0 218 0 217 218 1 218 1 0
-219z m-2639 -439 c13 -1 15 -28 15 -218 l-1 -218 -217 0 -218 0 0 216 c0 136
4 219 10 221 8 2 343 1 411 -1z m666 -5 c4 -4 7 -334 4 -411 -1 -19 -8 -20
-216 -20 -118 0 -216 2 -216 5 -1 3 -2 100 -3 215 -1 195 0 210 17 215 23 6
407 3 414 -4z m635 4 l26 0 1 -214 c0 -159 -3 -215 -12 -218 -10 -4 -362 -3
-409 1 -14 1 -16 23 -16 215 -1 214 -1 215 21 218 18 2 212 2 389 -2z m678 1
c4 -1 5 -373 1 -421 -1 -13 -31 -15 -216 -15 l-215 0 -1 25 c-1 27 -1 378 0
397 1 6 11 13 24 15 17 2 386 1 407 -1z m648 0 c9 -1 12 -52 12 -219 l0 -217
-212 1 c-117 1 -216 2 -219 3 -8 1 -6 414 3 426 5 8 331 12 416 6z m-2617
-660 c3 0 6 -98 5 -216 l0 -215 -218 0 -218 0 0 218 0 218 213 -2 c116 -1 215
-2 218 -3z m660 -11 c1 -20 1 -391 0 -408 -1 -10 -48 -12 -218 -10 l-218 3 0
205 c-1 113 1 210 2 216 3 7 75 10 218 10 185 -1 215 -3 216 -16z m656 -203
l3 -217 -218 2 -217 3 -2 205 c-1 113 -1 210 1 216 3 7 74 10 218 10 l213 -1
2 -218z m658 1 l0 -218 -217 0 c-168 0 -218 3 -219 13 -1 20 -1 349 0 388 l1
35 217 0 218 -1 0 -217z m655 -329 l0 -548 -217 2 -218 2 -1 535 c0 294 1 540
3 546 2 7 76 10 218 10 l215 0 0 -547z m-1969 -126 c1 -23 1 -371 0 -400 l-1
-21 -545 0 -545 0 0 219 0 219 545 0 c512 0 545 -1 546 -17z m656 -200 l-2
-218 -216 -1 -217 -1 0 218 -1 219 219 0 219 0 -2 -217z m657 4 c1 -115 -1
-213 -4 -217 -3 -5 -102 -8 -219 -7 l-214 2 1 205 c0 113 1 211 1 218 1 10 48
12 218 10 l217 -3 0 -208z"/>
</g>
</svg>
