<svg xmlns="http://www.w3.org/2000/svg" aria-hidden="true" style="position:absolute;width:0;height:0;overflow:hidden">
  <defs>
    <symbol id="calculator" viewBox="0 0 32 32">
      <path d="M24 5H8a1 1 0 0 0-1 1v21a1 1 0 0 0 1 1h16a1 1 0 0 0 1-1V6a1 1 0 0 0-1-1zM9 15h2v2H9v-2zm0 3h2v2H9v-2zm0 3h2v2H9v-2zm5 5H9v-2h5v2zm0-3h-2v-2h2v2zm0-3h-2v-2h2v2zm0-3h-2v-2h2v2zm3 9h-2v-2h2v2zm0-3h-2v-2h2v2zm0-3h-2v-2h2v2zm0-3h-2v-2h2v2zm3 9h-2v-2h2v2zm0-3h-2v-2h2v2zm0-3h-2v-2h2v2zm0-3h-2v-2h2v2zm3 9h-2v-5h2v5zm0-6h-2v-2h2v2zm0-3h-2v-2h2v2zm0-4H9V7h14v6z"/>
    </symbol>
    <symbol id="linkedin" viewBox="0 0 24 28">
      <path d="M3.703 22.094h3.609V11.25H3.703v10.844zM7.547 7.906c-.016-1.062-.781-1.875-2.016-1.875s-2.047.812-2.047 1.875c0 1.031.781 1.875 2 1.875H5.5c1.266 0 2.047-.844 2.047-1.875zm9.141 14.188h3.609v-6.219c0-3.328-1.781-4.875-4.156-4.875-1.937 0-2.797 1.078-3.266 1.828h.031V11.25H9.297s.047 1.016 0 10.844h3.609v-6.062c0-.313.016-.641.109-.875.266-.641.859-1.313 1.859-1.313 1.297 0 1.813.984 1.813 2.453v5.797zM24 6.5v15c0 2.484-2.016 4.5-4.5 4.5h-15A4.502 4.502 0 0 1 0 21.5v-15C0 4.016 2.016 2 4.5 2h15C21.984 2 24 4.016 24 6.5z"/>
    </symbol>
    <symbol id="github" viewBox="0 0 24 28">
      <path d="M12 2c6.625 0 12 5.375 12 12 0 5.297-3.437 9.797-8.203 11.391-.609.109-.828-.266-.828-.578 0-.391.016-1.687.016-3.297 0-1.125-.375-1.844-.812-2.219 2.672-.297 5.484-1.313 5.484-5.922 0-1.313-.469-2.375-1.234-3.219.125-.313.531-1.531-.125-3.187-1-.313-3.297 1.234-3.297 1.234a11.28 11.28 0 0 0-6 0S6.704 6.656 5.704 6.969c-.656 1.656-.25 2.875-.125 3.187-.766.844-1.234 1.906-1.234 3.219 0 4.594 2.797 5.625 5.469 5.922-.344.313-.656.844-.766 1.609-.688.313-2.438.844-3.484-1-.656-1.141-1.844-1.234-1.844-1.234-1.172-.016-.078.734-.078.734.781.359 1.328 1.75 1.328 1.75.703 2.141 4.047 1.422 4.047 1.422 0 1 .016 1.937.016 2.234 0 .313-.219.688-.828.578C3.439 23.796.002 19.296.002 13.999c0-6.625 5.375-12 12-12zM4.547 19.234c.031-.063-.016-.141-.109-.187-.094-.031-.172-.016-.203.031-.031.063.016.141.109.187.078.047.172.031.203-.031zm.484.532c.063-.047.047-.156-.031-.25-.078-.078-.187-.109-.25-.047-.063.047-.047.156.031.25.078.078.187.109.25.047zm.469.703c.078-.063.078-.187 0-.297-.063-.109-.187-.156-.266-.094-.078.047-.078.172 0 .281s.203.156.266.109zm.656.656c.063-.063.031-.203-.063-.297-.109-.109-.25-.125-.313-.047-.078.063-.047.203.063.297.109.109.25.125.313.047zm.891.391c.031-.094-.063-.203-.203-.25-.125-.031-.266.016-.297.109s.063.203.203.234c.125.047.266 0 .297-.094zm.984.078c0-.109-.125-.187-.266-.172-.141 0-.25.078-.25.172 0 .109.109.187.266.172.141 0 .25-.078.25-.172zm.906-.156c-.016-.094-.141-.156-.281-.141-.141.031-.234.125-.219.234.016.094.141.156.281.125s.234-.125.219-.219z"/>
    </symbol>
  </defs>
</svg>
